<?xml version="1.0" encoding="UTF-8" standalone="no"?>
<!-- Creator: CorelDRAW X7 -->

<svg
   xmlns:dc="http://purl.org/dc/elements/1.1/"
   xmlns:cc="http://creativecommons.org/ns#"
   xmlns:rdf="http://www.w3.org/1999/02/22-rdf-syntax-ns#"
   xmlns:svg="http://www.w3.org/2000/svg"
   xmlns="http://www.w3.org/2000/svg"
   xmlns:sodipodi="http://sodipodi.sourceforge.net/DTD/sodipodi-0.dtd"
   xmlns:inkscape="http://www.inkscape.org/namespaces/inkscape"
   xml:space="preserve"
   width="5.1999998in"
   height="1.3in"
   version="1.1"
   style="clip-rule:evenodd;fill-rule:evenodd;image-rendering:optimizeQuality;shape-rendering:geometricPrecision;text-rendering:geometricPrecision"
   viewBox="0 0 5199.9998 1299.9999"
   id="svg913"
   sodipodi:docname="logo.svg"
   inkscape:version="0.92.4 (33fec40, 2019-01-16)"><metadata
   id="metadata917"><rdf:RDF><cc:Work
       rdf:about=""><dc:format>image/svg+xml</dc:format><dc:type
         rdf:resource="http://purl.org/dc/dcmitype/StillImage" /><dc:title></dc:title></cc:Work></rdf:RDF></metadata><sodipodi:namedview
   pagecolor="#ffffff"
   bordercolor="#666666"
   borderopacity="1"
   objecttolerance="10"
   gridtolerance="10"
   guidetolerance="10"
   inkscape:pageopacity="0"
   inkscape:pageshadow="2"
   inkscape:window-width="3000"
   inkscape:window-height="1790"
   id="namedview915"
   showgrid="false"
   inkscape:pagecheckerboard="true"
   inkscape:zoom="1.4251894"
   inkscape:cx="236.10897"
   inkscape:cy="219.2691"
   inkscape:window-x="0"
   inkscape:window-y="54"
   inkscape:window-maximized="1"
   inkscape:current-layer="svg913" />
 <defs
   id="defs888">
  <style
   type="text/css"
   id="style886">
   <![CDATA[
    .fil1 {fill:#12C9CC}
    .fil2 {fill:#2CCEB7}
    .fil3 {fill:#51616B}
    .fil0 {fill:white}
   ]]>
  </style>
 </defs>
 <g
   id="Layer_x0020_1"
   transform="translate(-7.3089697,-9670.7643)">
  <metadata
   id="CorelCorpID_0Corel-Layer" />
  
  <g
   id="_889464272"
   transform="translate(-2894.3521,4823.9204)">
   <g
   id="g907">
    <path
   class="fil1"
   d="m 3508,5229 c -1,0 -2,-1 -3,-1 1,0 2,1 3,1 z"
   id="path893"
   inkscape:connector-curvature="0"
   style="fill:#12c9cc" />
    <path
   class="fil1"
   d="m 3577,5268 c -1,-1 -2,-1 -2,-2 0,1 1,1 2,2 z"
   id="path895"
   inkscape:connector-curvature="0"
   style="fill:#12c9cc" />
    <path
   class="fil1"
   d="m 3589,5277 c 0,0 -1,-1 -2,-1 1,0 2,1 2,1 z"
   id="path897"
   inkscape:connector-curvature="0"
   style="fill:#12c9cc" />
    <path
   class="fil1"
   d="m 3646,5342 c -1,-1 -1,-2 -1,-2 0,0 0,1 1,2 z"
   id="path899"
   inkscape:connector-curvature="0"
   style="fill:#12c9cc" />
    <path
   class="fil1"
   d="m 3688,5572 c 0,-1 0,-1 0,-2 0,1 0,1 0,2 z"
   id="path901"
   inkscape:connector-curvature="0"
   style="fill:#12c9cc" />
    <path
   class="fil2"
   d="m 3969,5688 c 51,3 91,47 89,98 -1,14 -4,26 -10,37 -7,16 -20,32 -31,46 -114,145 -293,235 -491,226 -94,-5 -182,-32 -260,-75 35,8 71,14 109,16 207,10 393,-101 491,-271 6,-9 11,-18 16,-28 v 0 c 17,-30 50,-50 87,-49 z"
   id="path903"
   inkscape:connector-curvature="0"
   style="fill:#2cceb7" />
    <path
   class="fil2"
   d="m 3542,4905 c 213,0 399,114 503,285 v 0 1 0 0 l 1,2 v 0 l 1,1 v 1 h 1 v 2 l 1,1 v 0 c 1,2 2,4 3,7 v 0 1 1 l 1,2 v 0 l 1,1 v 0 2 1 0 l 1,2 v 0 1 0 1 l 1,2 v 0 0 c 1,8 2,15 2,23 v 1 l -1,1 v 2 0 c -4,48 -44,85 -92,85 -38,0 -69,-23 -85,-54 -79,-154 -199,-258 -422,-258 -224,0 -463,215 -463,481 0,199 148,361 346,361 147,0 253,-77 308,-179 23,-44 37,-95 37,-148 0,-175 -141,-316 -314,-316 -119,0 -223,67 -275,166 v 0 c -3,5 -5,9 -7,14 13,-43 34,-85 62,-123 99,-134 272,-190 430,-139 445,142 305,819 -179,819 -68,0 -132,-15 -190,-42 -91,60 -184,69 -271,67 80,-69 95,-142 90,-196 -2,-19 -1,-17 -5,-32 h 1 c -48,-72 -76,-159 -76,-252 0,-329 264,-595 590,-595 z"
   id="path905"
   inkscape:connector-curvature="0"
   style="fill:#2cceb7" />
   </g>
   <path
   class="fil3"
   d="m 4642,5812 c 97,0 162,-31 218,-81 10,-9 18,-22 18,-38 0,-27 -24,-49 -50,-49 -13,0 -24,5 -32,12 -44,37 -87,57 -151,57 -115,0 -198,-95 -198,-213 v -2 c 0,-118 84,-212 198,-212 58,0 103,20 144,54 7,5 17,10 32,10 29,0 52,-22 52,-51 0,-19 -9,-34 -20,-43 -53,-40 -114,-68 -207,-68 -182,0 -310,141 -310,312 v 2 c 0,173 130,310 306,310 z m 665,0 c 185,0 316,-142 316,-312 v -2 c 0,-169 -129,-310 -314,-310 -185,0 -316,142 -316,312 v 2 c 0,169 129,310 314,310 z m 2,-99 c -120,0 -205,-96 -205,-213 v -2 c 0,-117 83,-212 203,-212 119,0 205,97 205,214 v 2 c 0,117 -84,211 -203,211 z m 728,98 c 158,0 259,-91 259,-271 v -293 c 0,-29 -23,-52 -52,-52 -30,0 -54,23 -54,52 v 299 c 0,111 -57,167 -151,167 -95,0 -152,-60 -152,-172 v -294 c 0,-29 -24,-52 -53,-52 -30,0 -53,23 -53,52 v 299 c 0,174 100,265 256,265 z m 444,-58 c 0,29 23,52 53,52 30,0 53,-23 53,-52 v -162 h 133 l 147,187 c 12,16 27,27 51,27 26,0 51,-19 51,-49 0,-16 -7,-27 -17,-40 l -116,-145 c 81,-25 137,-84 137,-180 v -2 c 0,-53 -18,-97 -50,-130 -38,-38 -98,-60 -173,-60 h -216 c -30,0 -53,23 -53,53 z m 106,-256 v -202 h 154 c 78,0 125,35 125,100 v 2 c 0,61 -49,100 -124,100 z m 562,256 c 0,29 23,52 53,52 29,0 52,-23 52,-52 v -506 c 0,-29 -23,-52 -52,-52 -30,0 -53,23 -53,52 z m 593,59 c 185,0 316,-142 316,-312 v -2 c 0,-169 -129,-310 -314,-310 -185,0 -316,142 -316,312 v 2 c 0,169 129,310 314,310 z m 2,-99 c -120,0 -205,-96 -205,-213 v -2 c 0,-117 83,-212 203,-212 120,0 205,97 205,214 v 2 c 0,117 -84,211 -203,211 z"
   id="path909"
   inkscape:connector-curvature="0"
   style="fill:#51616b" />
  </g>
 </g>
</svg>